{
  "accessors": [
    {
      "bufferView": 2,
      "componentType": 5126,
      "count": 20203,
      "max": [
        9.447813034057617,
        9.162423133850098,
        21.934965133666992
      ],
      "min": [
        -9.716300964355469,
        -12.770162582397461,
        -0.00061798095703125
      ],
      "type": "VEC3"
    },
    {
      "bufferView": 2,
      "byteOffset": 242436,
      "componentType": 5126,
      "count": 20203,
      "max": [
        0.9999719858169556,
        0.9999713897705078,
        0.9999296069145203
      ],
      "min": [
        -0.7476218342781067,
        -0.9999808669090271,
        -0.99997478723526
      ],
      "type": "VEC3"
    },
    {
      "bufferView": 1,
      "componentType": 5126,
      "count": 20203,
      "max": [
        0.999876856803894,
        0.9969481229782104
      ],
      "min": [
        0.0001220703125,
        0.00012226833496242762
      ],
      "type": "VEC2"
    },
    {
      "bufferView": 0,
      "componentType": 5125,
      "count": 112242,
      "type": "SCALAR"
    },
    {
      "bufferView": 2,
      "byteOffset": 484872,
      "componentType": 5126,
      "count": 16093,
      "max": [
        9.447813034057617,
        8.991500854492188,
        21.931251525878906
      ],
      "min": [
        -12.481210708618164,
        -12.768513679504395,
        0.5272111892700195
      ],
      "type": "VEC3"
    },
    {
      "bufferView": 2,
      "byteOffset": 677988,
      "componentType": 5126,
      "count": 16093,
      "max": [
        0.9999589323997498,
        0.9843242168426514,
        0.9995830655097961
      ],
      "min": [
        -0.9999785423278809,
        -0.9999144673347473,
        -0.950980007648468
      ],
      "type": "VEC3"
    },
    {
      "bufferView": 1,
      "byteOffset": 161624,
      "componentType": 5126,
      "count": 16093,
      "max": [
        0.9998476505279541,
        0.9964598417282104
      ],
      "min": [
        0.0001220703125,
        0.0001522494712844491
      ],
      "type": "VEC2"
    },
    {
      "bufferView": 0,
      "byteOffset": 448968,
      "componentType": 5125,
      "count": 90207,
      "type": "SCALAR"
    },
    {
      "bufferView": 2,
      "byteOffset": 871104,
      "componentType": 5126,
      "count": 10542,
      "max": [
        9.425501823425293,
        8.851625442504883,
        21.921340942382813
      ],
      "min": [
        -12.473018646240234,
        -12.714746475219727,
        3.102710723876953
      ],
      "type": "VEC3"
    },
    {
      "bufferView": 2,
      "byteOffset": 997608,
      "componentType": 5126,
      "count": 10542,
      "max": [
        0.9979075193405151,
        0.9714980721473694,
        0.9986215233802795
      ],
      "min": [
        -0.9992735385894775,
        -0.9964194297790527,
        -0.7152721881866455
      ],
      "type": "VEC3"
    },
    {
      "bufferView": 1,
      "byteOffset": 290368,
      "componentType": 5126,
      "count": 10542,
      "max": [
        0.9954531192779541,
        0.7010496854782104
      ],
      "min": [
        0.0001220703125,
        0.00015141500625759363
      ],
      "type": "VEC2"
    },
    {
      "bufferView": 0,
      "byteOffset": 809796,
      "componentType": 5125,
      "count": 59055,
      "type": "SCALAR"
    }
  ],
  "asset": {
    "extras": {
      "author": "matousekfoto (https://sketchfab.com/matousekfoto)",
      "license": "CC-BY-4.0 (http://creativecommons.org/licenses/by/4.0/)",
      "source": "https://sketchfab.com/3d-models/earth-globe-98d2b04d46474bafb4250cc75dc583b3",
      "title": "Earth Globe 🌍"
    },
    "generator": "Sketchfab-12.67.0",
    "version": "2.0"
  },
  "bufferViews": [
    {
      "buffer": 0,
      "byteLength": 1046016,
      "name": "floatBufferViews",
      "target": 34963
    },
    {
      "buffer": 0,
      "byteLength": 374704,
      "byteOffset": 1046016,
      "byteStride": 8,
      "name": "floatBufferViews",
      "target": 34962
    },
    {
      "buffer": 0,
      "byteLength": 1124112,
      "byteOffset": 1420720,
      "byteStride": 12,
      "name": "floatBufferViews",
      "target": 34962
    }
  ],
  "buffers": [
    {
      "byteLength": 2544832,
      "uri": "scene.bin"
    }
  ],
  "extensionsUsed": [
    "KHR_materials_unlit"
  ],
  "images": [
    {
      "uri": "textures/Material_u1_v1_baseColor.jpeg"
    },
    {
      "uri": "textures/Material_u2_v1_baseColor.jpeg"
    },
    {
      "uri": "textures/Material_u1_v2_baseColor.jpeg"
    }
  ],
  "materials": [
    {
      "doubleSided": true,
      "extensions": {
        "KHR_materials_unlit": {}
      },
      "name": "Material_u1_v1",
      "pbrMetallicRoughness": {
        "baseColorTexture": {
          "index": 0
        },
        "metallicFactor": 0.0
      }
    },
    {
      "doubleSided": true,
      "extensions": {
        "KHR_materials_unlit": {}
      },
      "name": "Material_u2_v1",
      "pbrMetallicRoughness": {
        "baseColorTexture": {
          "index": 1
        },
        "metallicFactor": 0.0
      }
    },
    {
      "doubleSided": true,
      "extensions": {
        "KHR_materials_unlit": {}
      },
      "name": "Material_u1_v2",
      "pbrMetallicRoughness": {
        "baseColorTexture": {
          "index": 2
        },
        "metallicFactor": 0.0
      }
    }
  ],
  "meshes": [
    {
      "name": "meshNode_Material_u1_v1_0",
      "primitives": [
        {
          "attributes": {
            "NORMAL": 1,
            "POSITION": 0,
            "TEXCOORD_0": 2
          },
          "indices": 3,
          "material": 0,
          "mode": 4
        }
      ]
    },
    {
      "name": "meshNode_Material_u2_v1_0",
      "primitives": [
        {
          "attributes": {
            "NORMAL": 5,
            "POSITION": 4,
            "TEXCOORD_0": 6
          },
          "indices": 7,
          "material": 1,
          "mode": 4
        }
      ]
    },
    {
      "name": "meshNode_Material_u1_v2_0",
      "primitives": [
        {
          "attributes": {
            "NORMAL": 9,
            "POSITION": 8,
            "TEXCOORD_0": 10
          },
          "indices": 11,
          "material": 2,
          "mode": 4
        }
      ]
    }
  ],
  "nodes": [
    {
      "children": [
        1
      ],
      "matrix": [
        -0.8952069282531738,
        0.44565075635910034,
        9.895434613029782e-17,
        0.0,
        0.0,
        2.220446049250313e-16,
        -1.0,
        0.0,
        -0.44565075635910034,
        -0.8952069282531738,
        -1.9877586871012683e-16,
        0.0,
        -5.177262306213379,
        -20.678810119628906,
        -4.59161822333274e-15,
        1.0
      ],
      "name": "Sketchfab_model"
    },
    {
      "children": [
        2
      ],
      "matrix": [
        1.0,
        0.0,
        0.0,
        0.0,
        0.0,
        -1.0,
        0.0,
        0.0,
        0.0,
        0.0,
        -1.0,
        0.0,
        0.0,
        0.0,
        0.0,
        1.0
      ],
      "name": "G-earth-screensHD.fbx"
    },
    {
      "children": [
        3
      ],
      "name": "RootNode"
    },
    {
      "children": [
        4,
        5,
        6
      ],
      "name": "meshNode"
    },
    {
      "mesh": 0,
      "name": "meshNode_Material_u1_v1_0"
    },
    {
      "mesh": 1,
      "name": "meshNode_Material_u2_v1_0"
    },
    {
      "mesh": 2,
      "name": "meshNode_Material_u1_v2_0"
    }
  ],
  "samplers": [
    {
      "magFilter": 9729,
      "minFilter": 9987,
      "wrapS": 10497,
      "wrapT": 10497
    }
  ],
  "scene": 0,
  "scenes": [
    {
      "name": "Sketchfab_Scene",
      "nodes": [
        0
      ]
    }
  ],
  "textures": [
    {
      "sampler": 0,
      "source": 0
    },
    {
      "sampler": 0,
      "source": 1
    },
    {
      "sampler": 0,
      "source": 2
    }
  ]
}
